<?xml version="1.0" encoding="UTF-8"?>
<svg xmlns="http://www.w3.org/2000/svg" viewBox="0 0 512 512" width="512" height="512">
<path d="M511.92 189.76C511.92 194.77 511.92 199.78 511.92 204.79C510.42 206.16 510 209.81 508.9 211.75C506.51 216 502.66 219.59 498.26 221.69C492.88 224.25 487.2 224 481.37 224C469.48 224 457.87 223.49 451.23 212.01C447.11 204.89 448.67 196.96 446.81 189.27C442.64 171.97 428.4 156.72 410.62 153.11C395.84 150.11 374.82 152 359.34 152C326.92 152 294.5 152 262.08 152C229.35 152 196.62 152 163.89 152C152.98 152 142.07 152 131.16 152C126.33 152 120.91 151.32 116.17 152.2C116.97 154.75 120.61 157.21 122.54 159.18C127.68 164.43 138.04 172.22 139.96 179.27C143.57 192.61 129.39 201.97 121.12 210.21C117.61 213.71 114.31 217.84 109.57 219.7C105.47 221.3 100.42 220.83 96.56 218.85C90.17 215.58 75.77 199.09 69.84 193.16C52.71 176.01 35.54 158.89 18.4 141.75C13.33 136.69 8.31 131.57 3.21 126.54C2.01 125.35 1.31 123.56 0.08 122.56C0.08 120.82 0.08 119.09 0.08 117.35C1.32 116.46 2.08 114.54 3.25 113.38C9.67 107.02 16.11 100.67 22.43 94.21C38.38 77.91 54.79 62.04 70.84 45.84C76.55 40.08 90.1 24.59 96.28 21.26C110.7 13.51 122.26 31.02 131.12 39.79C135.93 44.54 141.22 49.37 140.65 56.81C139.57 70.68 122.63 76.94 116.02 87.67C122.39 89.43 133.17 88 140.04 88C156.87 88 173.71 88 190.54 88C245.56 88 300.58 88 355.59 88C374.72 88 398.27 86.08 416.85 89.2C438.61 92.85 457.6 102.19 474.43 116.36C489.69 129.2 500.35 147.28 506.72 165.86C508.62 171.39 509.68 177.25 510.77 182.98C511.2 185.27 510.86 187.64 511.92 189.76ZM511.92 389.44C511.92 391.17 511.92 392.91 511.92 394.64C510.43 395.69 509.23 398.15 507.81 399.56C502.08 405.21 496.45 410.96 490.73 416.63C473.85 433.4 457 450.22 440.23 467.1C434.27 473.1 422.45 487.1 415.7 490.72C401.27 498.45 389.77 480.97 380.89 472.2C375.97 467.33 370.55 462.38 371.37 454.73C372.83 441.16 389.42 434.97 396 424.33C389.6 422.58 378.85 424 371.96 424C355.13 424 338.29 424 321.46 424C266.6 424 211.74 424 156.87 424C135.16 424 110.77 426.3 89.54 421.8C72.17 418.11 56.55 410.35 42.41 399.7C25.93 387.29 12.77 368.37 6.22 348.95C4.59 344.11 2.91 338.96 2.1 333.9C1.57 330.61 1.76 325.35 0.08 322.58C0.08 317.45 0.08 312.33 0.08 307.2C1.26 306.06 1.45 303.64 2.13 302.07C3.64 298.61 6.24 295.55 9.15 293.18C18.56 285.53 45.45 285.59 54.87 293.21C65.5 301.81 62.41 311.14 65.18 322.74C68.39 336.17 77.65 348.54 90.15 354.73C102.15 360.67 114.8 360 127.88 360C145.03 360 162.17 360 179.32 360C228.1 360 276.89 360 325.67 360C341.26 360 356.84 360 372.43 360C379.91 360 388.49 361.16 395.83 359.8C395.08 357.3 391.39 354.74 389.47 352.8C384.36 347.62 373.93 339.72 372.03 332.75C368.41 319.44 382.57 310 390.89 301.8C394.43 298.31 397.67 294.14 402.42 292.29C406.51 290.69 411.59 291.15 415.44 293.14C422.09 296.58 436.94 313.61 443.09 319.77C459.29 335.99 475.45 352.25 491.74 368.36C497.38 373.94 503.01 379.55 508.57 385.21C509.82 386.48 510.63 388.37 511.92 389.44Z" fill="#010101" fill-rule="evenodd" stroke="#010101" stroke-width="0.25" stroke-linejoin="round"/>
</svg>